<svg xmlns="http://www.w3.org/2000/svg" xmlns:svg="http://www.w3.org/2000/svg" id="svg4059" width="728.112" height="728.208" preserveAspectRatio="xMidYMid meet" version="1.0" viewBox="0 0 546.084 546.156"><metadata id="metadata4039">Created by potrace 1.12, written by Peter Selinger 2001-2015</metadata><g id="g4057" fill="#000" stroke="none" transform="translate(-202.416274,747.655759) scale(0.100000,-0.100000)" style="fill:#fff"><path id="path4041" d="M4550 7473 c-582 -48 -1123 -271 -1568 -646 l-84 -70 869 -869 c477 -477 871 -868 876 -868 4 0 6 552 5 1228 l-3 1227 -25 1 c-14 0 -45 -1 -70 -3z" style="fill:#fff"/><path id="path4043" d="M4867 7473 c-10 -9 -9 -2453 1 -2453 4 0 398 391 875 868 l869 869 -84 70 c-344 290 -749 492 -1178 587 -166 36 -469 74 -483 59z" style="fill:#fff"/><path id="path4045" d="M2673 6518 c-241 -285 -412 -595 -526 -953 -63 -196 -111 -458 -119 -640 l-3 -70 1228 -3 c675 -1 1227 1 1227 5 0 5 -391 399 -868 876 l-869 869 -70 -84z" style="fill:#fff"/><path id="path4047" d="M5898 5733 c-478 -477 -868 -871 -868 -876 0 -4 552 -6 1228 -5 l1227 3 -3 70 c-14 326 -124 729 -287 1055 -91 182 -259 430 -387 573 l-43 48 -867 -868z" style="fill:#fff"/><path id="path4049" d="M2026 4631 c-7 -11 10 -198 30 -321 76 -486 291 -952 617 -1338 l70 -84 869 869 c477 477 868 871 868 875 0 11 -2448 10 -2454 -1z" style="fill:#fff"/><path id="path4051" d="M5030 4633 c0 -5 391 -399 868 -876 l869 -869 70 84 c241 285 412 595 526 953 63 196 111 458 119 640 l3 70 -1227 3 c-676 1 -1228 -1 -1228 -5z" style="fill:#fff"/><path id="path4053" d="M3767 3602 l-869 -869 84 -70 c285 -241 595 -412 953 -526 196 -63 458 -111 640 -119 l70 -3 3 1228 c1 675 -1 1227 -5 1227 -5 0 -399 -391 -876 -868z" style="fill:#fff"/><path id="path4055" d="M4862 3243 l3 -1228 70 3 c182 8 444 56 640 119 358 114 668 285 953 526 l84 70 -869 869 c-477 477 -871 868 -876 868 -4 0 -6 -552 -5 -1227z" style="fill:#fff"/></g></svg>